<svg xmlns="http://www.w3.org/2000/svg" version="1.1" xmlns:xlink="http://www.w3.org/1999/xlink" xmlns:svgjs="http://svgjs.com/svgjs" width="1440" height="560" preserveAspectRatio="none" viewBox="0 0 1440 560"><g mask="url(&quot;#SvgjsMask1207&quot;)" fill="none"><path d="M0 0L683.9 0L0 265.52z" fill="rgba(255, 255, 255, .1)"></path><path d="M0 265.52L683.9 0L1058.53 0L0 272.69z" fill="rgba(255, 255, 255, .075)"></path><path d="M0 272.69L1058.53 0L1179.11 0L0 415.74z" fill="rgba(255, 255, 255, .05)"></path><path d="M0 415.74L1179.11 0L1360.87 0L0 494.57z" fill="rgba(255, 255, 255, .025)"></path><path d="M1440 560L733.6 560L1440 525.39z" fill="rgba(0, 0, 0, .1)"></path><path d="M1440 525.39L733.6 560L392.27000000000004 560L1440 234.28999999999996z" fill="rgba(0, 0, 0, .075)"></path><path d="M1440 234.28999999999996L392.27 560L149.98 560L1440 213.07999999999996z" fill="rgba(0, 0, 0, .05)"></path><path d="M1440 213.07999999999998L149.98000000000002 560L79.48000000000002 560L1440 191.48999999999998z" fill="rgba(0, 0, 0, .025)"></path></g><defs><mask id="SvgjsMask1207"><rect width="1440" height="560" fill="#ffffff"></rect></mask></defs></svg>